ffmpeg version 6.1.1-3ubuntu5 Copyright (c) 2000-2023 the FFmpeg developers
  built with gcc 13 (Ubuntu 13.2.0-23ubuntu3)
  configuration: --prefix=/usr --extra-version=3ubuntu5 --toolchain=hardened --libdir=/usr/lib/x86_64-linux-gnu --incdir=/usr/include/x86_64-linux-gnu --arch=amd64 --enable-gpl --disable-stripping --disable-omx --enable-gnutls --enable-libaom --enable-libass --enable-libbs2b --enable-libcaca --enable-libcdio --enable-libcodec2 --enable-libdav1d --enable-libflite --enable-libfontconfig --enable-libfreetype --enable-libfribidi --enable-libglslang --enable-libgme --enable-libgsm --enable-libharfbuzz --enable-libmp3lame --enable-libmysofa --enable-libopenjpeg --enable-libopenmpt --enable-libopus --enable-librubberband --enable-libshine --enable-libsnappy --enable-libsoxr --enable-libspeex --enable-libtheora --enable-libtwolame --enable-libvidstab --enable-libvorbis --enable-libvpx --enable-libwebp --enable-libx265 --enable-libxml2 --enable-libxvid --enable-libzimg --enable-openal --enable-opencl --enable-opengl --disable-sndio --enable-libvpl --disable-libmfx --enable-libdc1394 --enable-libdrm --enable-libiec61883 --enable-chromaprint --enable-frei0r --enable-ladspa --enable-libbluray --enable-libjack --enable-libpulse --enable-librabbitmq --enable-librist --enable-libsrt --enable-libssh --enable-libsvtav1 --enable-libx264 --enable-libzmq --enable-libzvbi --enable-lv2 --enable-sdl2 --enable-libplacebo --enable-librav1e --enable-pocketsphinx --enable-librsvg --enable-libjxl --enable-shared
  libavutil      58. 29.100 / 58. 29.100
  libavcodec     60. 31.102 / 60. 31.102
  libavformat    60. 16.100 / 60. 16.100
  libavdevice    60.  3.100 / 60.  3.100
  libavfilter     9. 12.100 /  9. 12.100
  libswscale      7.  5.100 /  7.  5.100
  libswresample   4. 12.100 /  4. 12.100
  libpostproc    57.  3.100 / 57.  3.100
Splitting the commandline.
Reading option '-y' ... matched as option 'y' (overwrite output files) with argument '1'.
Reading option '-loglevel' ... matched as option 'loglevel' (set logging level) with argument 'debug'.
Reading option '-f' ... matched as option 'f' (force format) with argument 'rawvideo'.
Reading option '-pixel_format' ... matched as AVOption 'pixel_format' with argument 'bgr24'.
Reading option '-video_size' ... matched as AVOption 'video_size' with argument '1920x1080'.
Reading option '-r' ... matched as option 'r' (set frame rate (Hz value, fraction or abbreviation)) with argument '24'.
Reading option '-i' ... matched as output url with argument '-'.
Reading option '-c:v' ... matched as option 'c' (codec name) with argument 'libx264'.
Reading option '-pix_fmt' ... matched as option 'pix_fmt' (set pixel format) with argument 'yuv420p'.
Reading option './../video/output_2024-08-13-17-44-47.mp4' ... matched as output url.
Finished splitting the commandline.
Parsing a group of options: global .
Applying option y (overwrite output files) with argument 1.
Applying option loglevel (set logging level) with argument debug.
Successfully parsed a group of options.
Parsing a group of options: input url -.
Applying option f (force format) with argument rawvideo.
Applying option r (set frame rate (Hz value, fraction or abbreviation)) with argument 24.
Successfully parsed a group of options.
Opening an input file: -.
[rawvideo @ 0x60af72be54c0] Opening 'fd:' for reading
[fd @ 0x60af72be5b40] Setting default whitelist 'crypto,data'
[rawvideo @ 0x60af72be54c0] Before avformat_find_stream_info() pos: 0 bytes read:0 seeks:0 nb_streams:1
[rawvideo @ 0x60af72be54c0] After avformat_find_stream_info() pos: 0 bytes read:0 seeks:0 frames:0
Input #0, rawvideo, from 'fd:':
  Duration: N/A, bitrate: 1194393 kb/s
  Stream #0:0, 0, 1/24: Video: rawvideo, 1 reference frame (BGR[24] / 0x18524742), bgr24, 1920x1080 (0x0), 0/1, 1194393 kb/s, 24 tbr, 24 tbn
Successfully opened the file.
Parsing a group of options: output url ./../video/output_2024-08-13-17-44-47.mp4.
Applying option c:v (codec name) with argument libx264.
Applying option pix_fmt (set pixel format) with argument yuv420p.
Successfully parsed a group of options.
Opening an output file: ./../video/output_2024-08-13-17-44-47.mp4.
[out#0/mp4 @ 0x60af72bf7480] No explicit maps, mapping streams automatically...
[vost#0:0/libx264 @ 0x60af72bf7d80] Created video stream from input stream 0:0
[file @ 0x60af72bfaf00] Setting default whitelist 'file,crypto,data'
Successfully opened the file.
Stream mapping:
  Stream #0:0 -> #0:0 (rawvideo (native) -> h264 (libx264))
[in#0/rawvideo @ 0x60af72be53c0] EOF while reading input
[in#0/rawvideo @ 0x60af72be53c0] Terminating demuxer thread
[vist#0:0/rawvideo @ 0x60af72bf6a00] Decoder thread received EOF packet
[vist#0:0/rawvideo @ 0x60af72bf6a00] Decoder returned EOF, finishing
[vist#0:0/rawvideo @ 0x60af72bf6a00] Terminating decoder thread
detected 4 logical cores
[graph 0 input from stream 0:0 @ 0x60af72c3c1c0] Setting 'video_size' to value '1920x1080'
[graph 0 input from stream 0:0 @ 0x60af72c3c1c0] Setting 'pix_fmt' to value '3'
[graph 0 input from stream 0:0 @ 0x60af72c3c1c0] Setting 'time_base' to value '1/24'
[graph 0 input from stream 0:0 @ 0x60af72c3c1c0] Setting 'pixel_aspect' to value '0/1'
[graph 0 input from stream 0:0 @ 0x60af72c3c1c0] Setting 'frame_rate' to value '24/1'
[graph 0 input from stream 0:0 @ 0x60af72c3c1c0] w:1920 h:1080 pixfmt:bgr24 tb:1/24 fr:24/1 sar:0/1
[format @ 0x60af72c3c740] Setting 'pix_fmts' to value 'yuv420p'
[auto_scale_0 @ 0x60af72c3d900] w:iw h:ih flags:'' interl:0
[format @ 0x60af72c3c740] auto-inserting filter 'auto_scale_0' between the filter 'Parsed_null_0' and the filter 'format'
[AVFilterGraph @ 0x60af72bf6f40] query_formats: 4 queried, 2 merged, 1 already done, 0 delayed
[auto_scale_0 @ 0x60af72c3d900] w:1920 h:1080 fmt:bgr24 sar:0/1 -> w:1920 h:1080 fmt:yuv420p sar:0/1 flags:0x00000004
[out_0_0 @ 0x60af72c3c5c0] EOF on sink link out_0_0:default.
[vost#0:0/libx264 @ 0x60af72bf7d80] No filtered frames for output stream, trying to initialize anyway.
[libx264 @ 0x60af72bf8140] using mv_range_thread = 88
[libx264 @ 0x60af72bf8140] using cpu capabilities: MMX2 SSE2Fast LZCNT SSSE3 SSE4.2
[libx264 @ 0x60af72bf8140] profile High, level 4.0, 4:2:0, 8-bit
[libx264 @ 0x60af72bf8140] 264 - core 164 r3108 31e19f9 - H.264/MPEG-4 AVC codec - Copyleft 2003-2023 - http://www.videolan.org/x264.html - options: cabac=1 ref=3 deblock=1:0:0 analyse=0x3:0x113 me=hex subme=7 psy=1 psy_rd=1.00:0.00 mixed_ref=1 me_range=16 chroma_me=1 trellis=1 8x8dct=1 cqm=0 deadzone=21,11 fast_pskip=1 chroma_qp_offset=-2 threads=6 lookahead_threads=1 sliced_threads=0 nr=0 decimate=1 interlaced=0 bluray_compat=0 constrained_intra=0 bframes=3 b_pyramid=2 b_adapt=1 b_bias=0 direct=1 weightb=1 open_gop=0 weightp=2 keyint=250 keyint_min=24 scenecut=40 intra_refresh=0 rc_lookahead=40 rc=crf mbtree=1 crf=23.0 qcomp=0.60 qpmin=0 qpmax=69 qpstep=4 ip_ratio=1.40 aq=1:1.00
Output #0, mp4, to './../video/output_2024-08-13-17-44-47.mp4':
  Metadata:
    encoder         : Lavf60.16.100
  Stream #0:0, 0, 1/12288: Video: h264, 1 reference frame (avc1 / 0x31637661), yuv420p(progressive), 1920x1080 (0x0), 0/1, q=2-31, 24 fps, 12288 tbn
    Metadata:
      encoder         : Lavc60.31.102 libx264
    Side data:
      cpb: bitrate max/min/avg: 0/0/0 buffer size: 0 vbv_delay: N/A
frame=    0 fps=0.0 q=0.0 size=       0kB time=N/A bitrate=N/A speed=N/A    No more output streams to write to, finishing.
[out#0/mp4 @ 0x60af72bf7480] All streams finished
[out#0/mp4 @ 0x60af72bf7480] Terminating muxer thread
[AVIOContext @ 0x60af72c3b000] Statistics: 266 bytes written, 2 seeks, 3 writeouts
[out#0/mp4 @ 0x60af72bf7480] Output file #0 (./../video/output_2024-08-13-17-44-47.mp4):
[out#0/mp4 @ 0x60af72bf7480]   Output stream #0:0 (video): 0 frames encoded; 0 packets muxed (0 bytes); 
[out#0/mp4 @ 0x60af72bf7480]   Total: 0 packets (0 bytes) muxed
[out#0/mp4 @ 0x60af72bf7480] video:0kB audio:0kB subtitle:0kB other streams:0kB global headers:0kB muxing overhead: unknown
[out#0/mp4 @ 0x60af72bf7480] Output file is empty, nothing was encoded(check -ss / -t / -frames parameters if used)
frame=    0 fps=0.0 q=0.0 Lsize=       0kB time=N/A bitrate=N/A speed=N/A    
[in#0/rawvideo @ 0x60af72be53c0] Input file #0 (fd:):
[in#0/rawvideo @ 0x60af72be53c0]   Input stream #0:0 (video): 0 packets read (0 bytes); 0 frames decoded; 0 decode errors; 
[in#0/rawvideo @ 0x60af72be53c0]   Total: 0 packets (0 bytes) demuxed
[AVIOContext @ 0x60af72bf5dc0] Statistics: 0 bytes read, 0 seeks
